<?xml version="1.0" encoding="iso-8859-1"?>
<!-- Generator: Adobe Illustrator 19.0.0, SVG Export Plug-In . SVG Version: 6.00 Build 0)  -->
<svg version="1.1" id="Capa_1" xmlns="http://www.w3.org/2000/svg" xmlns:xlink="http://www.w3.org/1999/xlink" x="0px" y="0px"
	 viewBox="0 0 512 512" style="enable-background:new 0 0 512 512;" xml:space="preserve">
<path style="fill:#44423E;" d="M512,402.282c0,16.716-13.55,30.267-30.265,30.267H30.265C13.55,432.549,0,418.997,0,402.282V109.717
	c0-16.716,13.55-30.266,30.265-30.266h451.47c16.716,0,30.265,13.551,30.265,30.266V402.282L512,402.282z"/>
<circle style="fill:#E7E8E3;" cx="344.58" cy="256.43" r="122.44"/>
<path style="opacity:0.15;fill:#202121;enable-background:new    ;" d="M21.517,402.282V109.717
	c0-16.716,13.552-30.266,30.267-30.266h-21.52C13.55,79.451,0,93.001,0,109.717v292.565c0,16.716,13.55,30.267,30.265,30.267h21.52
	C35.07,432.549,21.517,418.997,21.517,402.282z"/>
<path style="fill:#F7931A;" d="M343.004,341.042l6.083-24.333c24.893,4.424,43.694,2.763,51.442-19.912
	c6.635-18.253,0-28.761-13.276-35.399c9.954-2.211,17.145-8.851,18.805-21.571c2.763-17.699-11.064-27.102-30.42-33.183
	l6.083-23.784l-14.381-3.871l-5.531,23.23c-3.87-1.11-7.743-1.66-11.616-2.766l6.087-23.229l-14.383-3.871l-6.083,23.782
	c-3.319-0.555-6.637-1.662-9.406-2.215l-19.909-4.978l-3.872,15.485l10.508,2.767c5.533,1.104,6.637,4.979,6.637,8.294
	l-6.637,27.103c0.554,0,1.109,0,1.661,0.553c-0.552,0-1.106-0.553-1.661-0.553l-9.402,38.163c-0.554,1.662-2.765,4.425-6.637,3.319
	l-10.508-2.766l-7.191,16.594l18.805,4.976c3.872,1.11,7.191,1.66,10.508,2.765l-6.083,24.338l14.381,3.872l6.083-23.782
	c3.872,0.552,7.743,1.655,11.616,2.764l-6.081,23.781L343.004,341.042z M346.874,216.596c8.298,2.213,34.292,6.084,30.422,23.23
	c-3.872,16.592-29.313,8.298-37.611,6.083L346.874,216.596z M328.071,292.372l7.743-32.08c9.954,2.763,41.481,7.189,37.054,25.997
	C368.446,304.539,338.029,294.583,328.071,292.372z"/>
<g>
	<path style="fill:#E7E8E3;" d="M170.939,153.477H54.011c-4.611,0-8.348-3.736-8.348-8.348c0-4.611,3.736-8.348,8.348-8.348H170.94
		c4.61,0,8.348,3.736,8.348,8.348C179.287,149.741,175.551,153.477,170.939,153.477z"/>
	<path style="fill:#E7E8E3;" d="M170.939,190.208H54.011c-4.611,0-8.348-3.736-8.348-8.348c0-4.611,3.736-8.348,8.348-8.348H170.94
		c4.61,0,8.348,3.736,8.348,8.348C179.287,186.471,175.551,190.208,170.939,190.208z"/>
</g>
<g>
</g>
<g>
</g>
<g>
</g>
<g>
</g>
<g>
</g>
<g>
</g>
<g>
</g>
<g>
</g>
<g>
</g>
<g>
</g>
<g>
</g>
<g>
</g>
<g>
</g>
<g>
</g>
<g>
</g>
</svg>
